Patient4_TMGait_0pt7_01_right_25_EMG.mot
version=1
nRows=23
nColumns=33
inDegrees=no
endheader
time	1LAddLong	2LGlutMax	3LGlutMed	4LIliopsoas	5LSemiMemb	6LBicFemLong	7LRecFem	8LVastMed	9LVastLat	10LGasMed	11LTibAnt	12lTibPost	13LPeroneusLong	14LSol	15LExtDigLong	16LFlexDigLong	17RAddLong	18RGlutMax	19RGlutMed	20RIliopsoas	21RSemiMemb	22RBicFemLong	23RRecFem	24RVastMed	25RVastLat	26RGasMed	27RTibAnt	28RTibPost	29RPeroneusLong	30RSol	31RExtDigLong	32RFlexDigLong
29.03	0.015411	0.064392	-0.002441	0.003052	-0.10956	-0.20218	0.063934	0.024567	0.31509	-0.018005	-0.11826	0.007782	0.021515	-0.22842	-0.10147	0.006104	-0.011597	-0.26428	0.11795	-0.063171	0.015106	-0.062103	-0.45853	0.020752	0.080872	-0.002899	0.24597	-0.001221	0.85159	0.023651	-0.001221	-0.014954
29.031	0.037079	0.071869	-0.062561	0.007019	0.10071	-0.13886	0.095673	0.023346	0.13825	0.011749	-0.016022	0.011902	-0.006714	-0.22583	-0.14526	-0.006866	-0.009308	-0.3212	0.14084	-0.084991	0.0737	-0.16815	-0.44586	0.027313	0.072327	0.010529	0.036011	-0.000916	-1.1334	-0.1329	-0.003662	-0.009308
29.032	0.068817	0.007935	-0.09552	0.007477	0.31067	-0.096283	-0.046844	-0.004883	0.10376	0.014496	0.011292	0.005341	-0.018005	-0.19821	-0.22598	0.008392	0.000763	-0.29556	0.11185	-0.056763	0.055237	-0.159	-0.46967	-0.009003	0.070648	0.013275	-0.055237	0.001678	-0.34286	-0.16281	0.000153	-0.012665
29.033	0.064087	0.020599	-0.035553	0.003815	0.32288	0.07309	-0.058594	0	-0.036011	0.001526	0.032501	0.01236	0.009155	-0.16022	-0.057526	0.015869	0.010986	-0.26657	0.11078	0.025635	0.032349	-0.10773	-0.46081	-0.065613	0.066986	0.014954	-0.11368	-0.000305	-0.16205	-0.081482	-0.000153	-0.013428
29.034	0.03006	-0.011444	0.022278	0.011292	0.2095	0.26779	0.031738	0.01709	-0.1532	-0.018158	0.02182	0.011597	0.021362	-0.16342	0.14786	0.010529	0.002747	-0.33127	0.034027	0.031281	-0.004578	-0.10452	-0.4776	-0.065155	0.075531	0.016022	-0.085144	-0.000916	-0.15823	0.04776	0.001221	-0.007935
29.035	0.000916	-0.010529	-0.037537	0.005951	0.10193	0.32211	0.10757	-0.011444	-0.15839	-0.014343	-0.010529	0.003204	0.016937	-0.12116	0.23254	0.014648	0.023804	-0.22553	-0.066681	0.014191	-0.007019	-0.13397	-0.46097	-0.038757	0.088806	0.02594	-0.053558	-0.00061	0.24368	0.059814	0.005646	-0.00824
29.036	-0.014954	-0.017548	-0.00946	-0.006409	0.026093	0.31052	0.090942	-0.012207	-0.1506	-0.017395	-0.007629	0.014038	0.001831	-0.09079	0.2356	0.006409	0.015564	-0.12772	-0.054932	-0.010986	-0.000916	-0.04425	-0.54016	-0.008087	0.093842	0.020142	0.00946	-0.00412	-0.080719	0.077667	-0.00061	-0.010376
29.037	-0.032043	-0.049591	0.011292	0.004272	-0.0354	0.31082	0.088348	0.022278	-0.22736	0.00473	0.0383	0.01236	-0.005493	-0.067749	0.19486	0.000763	0.009003	-0.11444	-0.17899	-0.009003	0.044556	0.13443	-0.46219	0.006714	0.07843	0.008698	0.030518	-0.002136	-0.017853	-0.009613	-0.001984	-0.007935
29.038	-0.041046	-0.036163	0.011902	0.00351	-0.088501	0.40939	0.13412	0.032349	-0.31036	0.005798	0.023651	0.010986	0.000305	-0.023804	0.19394	0.011749	0.016174	-0.17487	-0.21851	-0.06897	0.11185	0.17899	-0.45105	-0.011139	0.089417	-0.005798	0.024109	-0.005798	-0.004425	-0.14771	-0.000916	-0.015717
29.039	-0.052185	0.013428	-0.027618	0.001831	-0.12466	0.53757	0.12161	0.036011	-0.26321	0.003967	0.017395	0.011292	-0.010529	-0.00946	0.22675	-0.002747	0.028534	-0.095062	0.14175	-0.083771	0.1149	0.12299	-0.46051	-0.011139	0.070038	-0.006561	0.030212	0.001373	-0.10986	-0.21316	-0.000305	-0.01297
29.04	-0.046844	0.01297	-0.076904	0.011292	-0.097961	0.60089	0.068359	0.030975	-0.16617	0.006714	-0.004578	0.010071	0.018921	-0.008545	0.23163	0.009308	0.016022	-0.027618	0.19257	-0.087128	0.12421	0.13046	-0.45639	0.013428	0.095978	-0.009766	0.050659	-0.000153	-0.12024	-0.06485	-0.001526	-0.015259
29.041	-0.032806	0.010376	-0.077972	-0.004272	-0.011292	0.55267	-0.025482	0.013275	0.064087	0.000458	-0.001373	0.005646	-0.003204	0.005951	0.23834	0.007172	0.000763	-0.042419	0.00473	-0.071716	0.21271	0.1712	-0.49377	0.080109	0.078125	-0.022583	-0.003357	-0.003357	-0.64987	-0.037231	-0.001526	-0.016785
29.042	-0.028992	0.013733	-0.038452	0.007782	-0.039368	0.37506	-0.041046	0.002441	0.21194	0.009918	-0.011292	0.002289	-0.012665	0.005341	0.14679	0.001373	-0.012817	-0.061188	0.17532	-0.027924	0.26901	0.18723	-0.47684	0.081787	0.068359	-0.023804	-0.10391	-0.001984	-0.90759	-0.056	-0.001831	-0.02121
29.043	-0.035248	0.036011	0.003357	0.015411	-0.090027	-0.028534	-0.001373	0.014496	0.27893	0.007477	-0.000458	0.002899	0.00885	0.00824	0.082397	0.005341	-0.018768	-0.047302	0.14893	0.020294	0.26291	0.1416	-0.44357	0.031891	0.036316	-0.007172	-0.14862	-0.002289	0.22507	0.015564	-0.001831	-0.016937
29.044	-0.026703	0.05661	-0.017395	-0.007629	-0.096588	-0.00824	-0.041046	0.003204	0.38818	0.007629	-0.005798	0.00473	0.013733	0.005951	0.055084	0.001068	-0.006256	-0.031433	-0.085297	0.074158	0.22293	0.056	-0.45258	-0.011597	0.029755	0.001984	-0.011139	-0.001526	0.81863	-0.061798	0.000305	-0.01297
29.045	-0.001984	0.010681	-0.039215	-0.009155	-0.020752	-0.1619	-0.061951	0.003662	0.36377	0.002747	0.010071	0.013275	0.008087	0.00824	0.030365	0.001221	-0.020294	-0.000305	-0.23621	0.093231	0.19791	-0.083618	-0.44678	-0.02182	-0.00061	0	0.29297	0.008087	0.34286	-0.11169	0	-0.019989
29.046	0.022125	0.060577	-0.016632	-0.018158	0.10757	-0.031586	-0.054321	0.009155	0.095978	0.030212	0.010986	0.004425	0.014191	0.018311	0.028534	0.006714	-0.023499	0.048523	-0.24094	0.026398	0.19455	-0.035095	-0.4538	-0.022125	-0.008392	-0.011444	0.4808	-0.003052	0.30716	-0.057983	-0.001068	-0.013275
29.047	0.016937	0.073547	-0.00473	-0.010834	0.053711	-0.1503	-0.019836	0.005798	-0.29144	0.033417	0.025024	0.006561	0.010071	0.028687	0.024872	0.006866	-0.00946	0.031128	0.097198	-0.029297	0.18875	0.019379	-0.44739	-0.055084	-0.013733	-0.031433	0.12741	-0.00351	0.18662	0.00885	-0.002441	-0.019836
29.048	0.003967	0.10208	-0.001678	0.010223	-0.042877	-0.47012	0.009918	0.002441	-0.53925	0.04715	0.019989	0.009155	-0.001373	0.03067	0.030365	0.004425	0.00412	0.041809	0.63171	-0.046997	0.19058	0.029907	-0.42068	-0.1033	-0.040436	-0.030518	-0.1648	-0.001526	0.034485	0.021667	-0.002289	-0.016785
29.049	0.007629	0.15472	0.010223	0.030975	-0.067291	-0.52994	-0.029449	0.004578	-0.44891	0.020599	0.022888	0.004272	-0.01297	0.037079	0.043335	-0.004425	0.007477	0.043793	0.43442	-0.067139	0.17425	0.018616	-0.38818	-0.081482	-0.044098	-0.023956	-0.072632	0.001831	0.10773	-0.041656	-0.00061	-0.010834
29.05	-0.11871	0.1738	-0.007019	0.014191	-0.027161	-0.45807	-0.034332	0.00412	-0.27496	0.000153	0.012512	0.002441	0.007172	0.035858	0.036163	0.000763	0.000458	-0.004425	0.055847	-0.011597	0.20599	0.032501	-0.44937	-0.044403	-0.046692	0.007019	0.10819	0.01297	0.20386	-0.11139	0.001068	-0.014343
29.051	-0.057526	0.21515	-0.039368	0.014343	0.074005	-0.21683	0.030212	0.009155	-0.23468	-0.00824	0.016785	0.00351	0.009003	0.04715	0.032043	0.004578	-0.0177	0.014496	-0.56595	0.017853	0.21286	0.025024	-0.4216	-0.020142	-0.04715	0.007019	0.099945	0.014038	0.023804	-0.17746	-0.001526	-0.016632
29.052	0.049438	0.25513	-0.078735	0.014954	0.13947	-0.041809	0.090942	0.01297	-0.18997	-0.02655	0.021362	-0.007477	0.021362	0.045624	0.016785	0.009613	0.004272	0.03418	0.57083	-0.11444	0.17456	0.004883	-0.44769	-0.009613	-0.039063	0.015106	-0.000305	0.007782	-0.13123	-0.44205	0.002441	-0.020142
